<?xml version="1.0" encoding="UTF-8"?>
<svg width="38px" height="41px" viewBox="0 0 38 41" version="1.1" xmlns="http://www.w3.org/2000/svg" xmlns:xlink="http://www.w3.org/1999/xlink">
    <!-- Generator: Sketch 52.6 (67491) - http://www.bohemiancoding.com/sketch -->
    <title>Apparel-1</title>
    <desc>Created with Sketch.</desc>
    <g id="Page-1" stroke="none" stroke-width="1" fill="none" fill-rule="evenodd">
        <g id="1" transform="translate(-262.000000, -95.000000)">
            <g id="header2">
                <g id="product-icons" transform="translate(0.000000, 80.000000)">
                    <g id="Group-29-Copy">
                        <g id="Apparel-1" transform="translate(262.000000, 16.000000)">
                            <g id="shirt-(1)" transform="translate(1.322034, 11.898305)" stroke="#000000">
                                <path d="M0.132574453,0.0871108393 L5.61864407,2.71302986" id="Path-16"></path>
                                <path d="M29.2173202,0.0871108393 L34.7033898,2.71302986" id="Path-16" transform="translate(31.960355, 1.400070) scale(-1, 1) translate(-31.960355, -1.400070) "></path>
                            </g>
                            <path d="M0.644745256,15.3020792 L6.94067797,17.7455498 L6.94067797,10.1699028 L6.94067797,39 L30.520447,39 L30.520447,10.1699028 L30.520447,17.7455498 L36.5042929,14.6001957 L33.7320188,4.70721138 L24.948134,0.351248699 C24.3160447,5.16185902 22.1915064,7.54322502 18.5745191,7.49534669 C14.9575318,7.44746836 12.8320502,5.06610236 12.1980743,0.351248699 L3.30577529,4.08775593 L0.644745256,15.3020792 Z" id="Path-14" fill="#FF9C9C"></path>
                            <polygon id="Path-14" stroke="#404674" points="0.644745256 15.3020792 6.94067797 17.7455498 6.94067797 10.1699028 6.94067797 39 30.520447 39 30.520447 10.1699028 30.520447 17.7455498 36.5042929 14.6001957 33.7320188 4.70721138 24.948134 0.351248699 12.1980743 0.351248699 3.30577529 4.08775593"></polygon>
                            <path d="M11.949193,0.351248699 C12.4828953,5.1283176 14.6693225,7.51685205 18.5084746,7.51685205 C22.3476267,7.51685205 24.5114274,5.0112347 24.9998767,1.11910481e-13" id="Path-15" stroke="#404674"></path>
                            <path d="M6.94067797,35.8455314 L25.520447,35.8455314" id="Path-17" stroke="#404674"></path>
                            <path d="M16.5254237,2.96390183 L20.4915254,2.96390183" id="Path-18" stroke="#404674"></path>
                        </g>
                    </g>
                </g>
            </g>
        </g>
    </g>
</svg>