<?xml version="1.0" encoding="UTF-8"?>
<svg width="57px" height="35px" viewBox="0 0 57 35" version="1.1" xmlns="http://www.w3.org/2000/svg" xmlns:xlink="http://www.w3.org/1999/xlink">
    <!-- Generator: Sketch 52.6 (67491) - http://www.bohemiancoding.com/sketch -->
    <title>Automotive-1</title>
    <desc>Created with Sketch.</desc>
    <g id="Page-1" stroke="none" stroke-width="1" fill="none" fill-rule="evenodd">
        <g id="1" transform="translate(-421.000000, -101.000000)">
            <g id="header2">
                <g id="product-icons" transform="translate(0.000000, 80.000000)">
                    <g id="Group-29-Copy">
                        <g id="Automotive-1" transform="translate(422.000000, 21.000000)">
                            <g id="Group-67" transform="translate(0.000000, 13.000000)">
                                <path d="M5.35265693,14.4428812 L1.52766688e-13,14.4428812 L1.52766688e-13,6.23575248 C1.52366757e-13,2.97006874 2.64735974,0.322708997 5.91304348,0.322708997 L51.0419886,0.322708997 C53.4912514,0.322708997 55.4767712,2.3082288 55.4767712,4.75749161 L55.4767712,14.4428812 L51.1711613,14.4428812 M37.6783962,14.4428812 L18.6400293,14.4428812" id="Shape" fill="#B3BCFF"></path>
                                <circle id="Oval" fill="#DDDDDD" cx="11.826087" cy="14.3478261" r="6.65217391"></circle>
                                <circle id="Oval" fill="#DDDDDD" cx="44.3478261" cy="14.3478261" r="6.65217391"></circle>
                                <circle id="Oval" fill="#FFFFFF" cx="11.826087" cy="14.3478261" r="2.95652174"></circle>
                                <circle id="Oval" fill="#FFFFFF" cx="44.3478261" cy="14.3478261" r="2.95652174"></circle>
                            </g>
                            <path d="M5.35265693,27.4428812 L0,27.4428812 L0,19.2357525 C-3.99930914e-16,15.9700687 2.64735974,13.322709 5.91304348,13.322709 L51.0419886,13.322709 C53.4912514,13.322709 55.4767712,15.3082288 55.4767712,17.7574916 L55.4767712,27.4428812 L51.1711613,27.4428812 M37.6783962,27.4428812 L18.6400293,27.4428812" id="Shape" stroke="#404674"></path>
                            <path d="M7.79935538,13.322709 L14.3517178,2.61098723 C15.0785314,1.42280121 16.3710957,0.698250628 17.7639504,0.698250628 L30.7552023,0.698250628 C31.8847867,0.698250628 32.9617116,1.17585407 33.7199883,2.01309809 L43.9628964,13.322709 L7.79935538,13.322709 Z" id="Path-20" stroke="#404674"></path>
                            <path d="M17.7391304,0.698250628 L17.7391304,13.322709" id="Path-21" stroke="#404674"></path>
                            <path d="M29.6977627,8.20754621 L29.6977627,13.322709" id="Path-22" stroke="#404674"></path>
                            <path d="M0,22.8582075 L2.27896473,22.8582075" id="Path-23" stroke="#404674"></path>
                            <path d="M20.6956522,22.8582075 L34.8007039,22.8582075" id="Path-23" stroke="#404674"></path>
                            <path d="M53.2173913,22.8582075 L55.4347826,22.8582075" id="Path-23" stroke="#404674"></path>
                            <path d="M49.5217391,17.6842944 L55.4347826,17.6842944" id="Path-23" stroke="#404674"></path>
                            <circle id="Oval" stroke="#404674" cx="11.826087" cy="27.3478261" r="2.95652174"></circle>
                            <circle id="Oval" stroke="#404674" cx="11.826087" cy="27.3478261" r="6.65217391"></circle>
                            <circle id="Oval" stroke="#404674" cx="44.3478261" cy="27.3478261" r="2.95652174"></circle>
                            <circle id="Oval" stroke="#404674" cx="44.3478261" cy="27.3478261" r="6.65217391"></circle>
                        </g>
                    </g>
                </g>
            </g>
        </g>
    </g>
</svg>