<?xml version="1.0" encoding="UTF-8"?>
<svg width="70px" height="37px" viewBox="0 0 70 37" version="1.1" xmlns="http://www.w3.org/2000/svg" xmlns:xlink="http://www.w3.org/1999/xlink">
    <!-- Generator: Sketch 52.6 (67491) - http://www.bohemiancoding.com/sketch -->
    <title>Computers-1</title>
    <desc>Created with Sketch.</desc>
    <g id="Page-1" stroke="none" stroke-width="1" fill="none" fill-rule="evenodd">
        <g id="1" transform="translate(-585.000000, -97.000000)">
            <g id="header2">
                <g id="product-icons" transform="translate(0.000000, 80.000000)">
                    <g id="Group-29-Copy">
                        <g id="Computers-1" transform="translate(586.000000, 18.000000)">
                            <path d="M19.5073892,4.57142857 L19.5073892,28.977374 C19.5073892,30.0819435 20.4028197,30.977374 21.5073892,30.977374 L56.6490796,30.977374 C57.7536491,30.977374 58.6490796,30.0819435 58.6490796,28.977374 L58.6490796,4.57142857 C58.6490796,3.46685907 57.7536491,2.57142857 56.6490796,2.57142857 L21.5073892,2.57142857 C20.4028197,2.57142857 19.5073892,3.46685907 19.5073892,4.57142857 Z" id="Path-27" fill="#97DAFF"></path>
                            <polygon id="Path-57" fill="#CCEDFF" opacity="0.5" points="20 21.3498732 45.017127 3 52.4891463 3 20 26.1813891"></polygon>
                            <polygon id="Path-57" fill="#D2EFFF" opacity="0.5" points="20 13.8588252 35.9941594 2.06120004 40.1872666 2 20 16.690341"></polygon>
                            <polygon id="Path-57-Copy" fill="#D2EFFF" opacity="0.5" points="44.3646456 30.9447274 59.1195534 20.0612 59.0334288 23.1140112 48.0217358 31.1272568"></polygon>
                            <path d="M0,2.3239301 L0,33.3571429 C1.3527075e-16,34.4617124 0.8954305,35.3571429 2,35.3571429 L13.4314909,35.3571429 C14.5360604,35.3571429 15.4314909,34.4617124 15.4314909,33.3571429 L15.4314909,2.3239301 C15.4314909,1.2193606 14.5360604,0.323930096 13.4314909,0.323930096 L2,0.323930096 C0.8954305,0.323930096 -1.3527075e-16,1.2193606 0,2.3239301 Z" id="Path-24" fill="#A2BCC9"></path>
                            <path d="M0,2.3239301 L0,20.3239301 L15.4314909,20.3239301 L15.4314909,2.3239301 C15.4314909,1.2193606 14.5360604,0.323930096 13.4314909,0.323930096 L2,0.323930096 C0.8954305,0.323930096 -1.3527075e-16,1.2193606 0,2.3239301 Z" id="Path-24" fill="#C4E2F1"></path>
                            <path d="M0,2.3239301 L0,33.3571429 C1.3527075e-16,34.4617124 0.8954305,35.3571429 2,35.3571429 L13.4314909,35.3571429 C14.5360604,35.3571429 15.4314909,34.4617124 15.4314909,33.3571429 L15.4314909,2.3239301 C15.4314909,1.2193606 14.5360604,0.323930096 13.4314909,0.323930096 L2,0.323930096 C0.8954305,0.323930096 -1.3527075e-16,1.2193606 0,2.3239301 Z" id="Path-24" stroke="#404674"></path>
                            <path d="M59.1317734,35.2349014 L67.6662562,35.2349014 L67.6662562,35.2349014 C67.6662562,32.9456811 65.8104765,31.0899015 63.5212563,31.0899015 L63.2767733,31.0899015 C60.9875531,31.0899015 59.1317734,32.9456811 59.1317734,35.2349014 Z" id="Path-29-Copy" fill="#A2BCC9"></path>
                            <path d="M0,20.0717685 L15.4314909,20.0717685" id="Path-25" stroke="#404674"></path>
                            <path d="M0,14.5853153 L15.4314909,14.5853153" id="Path-25" stroke="#404674"></path>
                            <path d="M0,8.48925617 L15.4314909,8.48925617" id="Path-25" stroke="#404674"></path>
                            <path d="M3.29622125,3.31097273 L5.4864532,3.31097273" id="Path-26" stroke="#404674"></path>
                            <path d="M10.6114922,3.31097273 L12.8017241,3.31097273" id="Path-26" stroke="#404674"></path>
                            <path d="M6.95385672,31.9624506 L9.14408867,31.9624506" id="Path-26" stroke="#404674"></path>
                            <path d="M19.5073892,4.57142857 L19.5073892,28.977374 C19.5073892,30.0819435 20.4028197,30.977374 21.5073892,30.977374 L56.6490796,30.977374 C57.7536491,30.977374 58.6490796,30.0819435 58.6490796,28.977374 L58.6490796,4.57142857 C58.6490796,3.46685907 57.7536491,2.57142857 56.6490796,2.57142857 L21.5073892,2.57142857 C20.4028197,2.57142857 19.5073892,3.46685907 19.5073892,4.57142857 Z" id="Path-27" stroke="#404674"></path>
                            <path d="M36.0293349,30.977374 L36.0293349,35.4901478" id="Path-28" stroke="#404674"></path>
                            <path d="M42.125394,30.977374 L42.125394,35.4901478" id="Path-28" stroke="#404674"></path>
                            <path d="M27,35.3571429 L51.4285714,35.0776398" id="Path-19" stroke="#404674"></path>
                            <path d="M59.1317734,35.2349014 L67.6662562,35.2349014 L67.6662562,35.2349014 C67.6662562,32.9456811 65.8104765,31.0899015 63.5212563,31.0899015 L63.2767733,31.0899015 C60.9875531,31.0899015 59.1317734,32.9456811 59.1317734,35.2349014 Z" id="Path-29-Copy" stroke="#404674"></path>
                            <g id="Group-41" transform="translate(27.000000, 30.613300)"></g>
                        </g>
                    </g>
                </g>
            </g>
        </g>
    </g>
</svg>