<?xml version="1.0" encoding="UTF-8"?>
<svg width="42px" height="38px" viewBox="0 0 42 38" version="1.1" xmlns="http://www.w3.org/2000/svg" xmlns:xlink="http://www.w3.org/1999/xlink">
    <!-- Generator: Sketch 52.6 (67491) - http://www.bohemiancoding.com/sketch -->
    <title>Credit Cards-1</title>
    <desc>Created with Sketch.</desc>
    <g id="Page-1" stroke="none" stroke-width="1" fill="none" fill-rule="evenodd">
        <g id="1" transform="translate(-769.000000, -96.000000)">
            <g id="header2">
                <g id="product-icons" transform="translate(0.000000, 80.000000)">
                    <g id="Group-29-Copy">
                        <g id="Credit-Cards-1" transform="translate(770.000000, 17.000000)">
                            <path d="M11.0667996,36.2745098 L37.1987619,36.2745098 C38.5569896,36.2745098 39.6580507,35.1734487 39.6580507,33.815221 L39.6580507,15.6972569 C39.6580507,14.3390292 38.5569896,13.2379681 37.1987619,13.2379681 L24.9005514,13.2379681" id="Path" fill="#FFD6E8"></path>
                            <path d="M3.55271368e-15,3.32670191 L3.99680289e-15,33.2745098 C4.19970901e-15,34.9313641 1.34314575,36.2745098 3,36.2745098 L21.9023179,36.2745098 C23.5591721,36.2745098 24.9023179,34.9313641 24.9023179,33.2745098 L24.9023179,3.32670191 C24.9023179,1.66984766 23.5591721,0.326701907 21.9023179,0.326701907 L3,0.326701907 C1.34314575,0.326701907 3.79389676e-15,1.66984766 3.99680289e-15,3.32670191 Z" id="Path-30" fill="#FF9DC8"></path>
                            <path d="M4.63159629,26.2816358 L4.63159629,30.7256671 C4.63159629,31.8302366 5.52702679,32.7256671 6.63159629,32.7256671 L9.35467283,32.7256671 C10.4592423,32.7256671 11.3546728,31.8302366 11.3546728,30.7256671 L11.3546728,26.2816358 C11.3546728,25.1770663 10.4592423,24.2816358 9.35467283,24.2816358 L6.63159629,24.2816358 C5.52702679,24.2816358 4.63159629,25.1770663 4.63159629,26.2816358 Z" id="Path-31" fill="#FFFFFF"></path>
                            <path d="M0,3.32670191 L4.4408921e-16,33.2745098 C6.46995335e-16,34.9313641 1.34314575,36.2745098 3,36.2745098 L21.9023179,36.2745098 C23.5591721,36.2745098 24.9023179,34.9313641 24.9023179,33.2745098 L24.9023179,3.32670191 C24.9023179,1.66984766 23.5591721,0.326701907 21.9023179,0.326701907 L3,0.326701907 C1.34314575,0.326701907 2.41183085e-16,1.66984766 4.4408921e-16,3.32670191 Z" id="Path-30" stroke="#404674"></path>
                            <path d="M29.2244843,29.970569 L29.2244843,30.7256671 C29.2244843,31.8302366 30.1199148,32.7256671 31.2244843,32.7256671 L33.9475608,32.7256671 C35.0521303,32.7256671 35.9475608,31.8302366 35.9475608,30.7256671 L35.9475608,29.970569 C35.9475608,28.8659995 35.0521303,27.970569 33.9475608,27.970569 L31.2244843,27.970569 C30.1199148,27.970569 29.2244843,28.8659995 29.2244843,29.970569 Z" id="Path-31" fill="#FFFFFF"></path>
                            <path d="M11.0667996,36.2745098 L37.1987619,36.2745098 C38.5569896,36.2745098 39.6580507,35.1734487 39.6580507,33.815221 L39.6580507,15.6972569 C39.6580507,14.3390292 38.5569896,13.2379681 37.1987619,13.2379681 L24.9005514,13.2379681" id="Path" stroke="#404674"></path>
                            <path d="M4.63159629,25.2816358 L4.63159629,31.7256671 C4.63159629,32.2779518 5.07931154,32.7256671 5.63159629,32.7256671 L10.3546728,32.7256671 C10.9069576,32.7256671 11.3546728,32.2779518 11.3546728,31.7256671 L11.3546728,25.2816358 C11.3546728,24.729351 10.9069576,24.2816358 10.3546728,24.2816358 L5.63159629,24.2816358 C5.07931154,24.2816358 4.63159629,24.729351 4.63159629,25.2816358 Z" id="Path-31" stroke="#404674"></path>
                            <path d="M29.2244843,28.970569 L29.2244843,31.7256671 C29.2244843,32.2779518 29.6721995,32.7256671 30.2244843,32.7256671 L34.9475608,32.7256671 C35.4998456,32.7256671 35.9475608,32.2779518 35.9475608,31.7256671 L35.9475608,28.970569 C35.9475608,28.4182842 35.4998456,27.970569 34.9475608,27.970569 L30.2244843,27.970569 C29.6721995,27.970569 29.2244843,28.4182842 29.2244843,28.970569 Z" id="Path-31" stroke="#404674"></path>
                            <path d="M3.96501957,0.326701907 L3.96501957,17.2302948 L3.96501957,0.326701907 Z M7.03913057,0.326701907 L7.03913057,12.9265394 L7.03913057,0.326701907 Z M10.1132416,0.326701907 L10.1132416,7.39313956 L10.1132416,0.326701907 Z" id="Path-95" stroke="#404674"></path>
                            <path d="M39.6580507,18.1769685 L24.9023179,18.1769685 L39.6580507,18.1769685 Z M39.6580507,23.0955461 L24.9023179,23.0955461 L39.6580507,23.0955461 Z" id="Path-96" stroke="#404674"></path>
                            <path d="M15.5073645,2.80641349 L17.3493924,2.80641349 M15.5073645,4.65088009 L17.3493924,4.65088009 M15.5073645,6.49534669 L17.3493924,6.49534669 M15.5073645,8.33981329 L17.3493924,8.33981329 M15.5073645,10.7991021 L17.3493924,10.7991021 M15.5073645,12.6435687 L17.3493924,12.6435687 M15.5073645,14.4880353 L17.3493924,14.4880353 M15.5073645,16.3325019 L17.3493924,16.3325019 M15.5073645,19.4066129 L17.3493924,19.4066129 M15.5073645,21.2510795 L17.3493924,21.2510795 M15.5073645,23.0955461 L17.3493924,23.0955461 M15.5073645,24.9400127 L17.3493924,24.9400127 M15.5073645,28.0141237 L17.3493924,28.0141237 M15.5073645,29.8585903 L17.3493924,29.8585903 M15.5073645,31.7030569 L17.3493924,31.7030569 M15.5073645,33.5475235 L17.3493924,33.5475235" id="Path-94" stroke="#404674"></path>
                        </g>
                    </g>
                </g>
            </g>
        </g>
    </g>
</svg>