<?xml version="1.0" encoding="UTF-8"?>
<svg width="46px" height="40px" viewBox="0 0 46 40" version="1.1" xmlns="http://www.w3.org/2000/svg" xmlns:xlink="http://www.w3.org/1999/xlink">
    <!-- Generator: Sketch 52.6 (67491) - http://www.bohemiancoding.com/sketch -->
    <title>Electroincs-1</title>
    <desc>Created with Sketch.</desc>
    <g id="Page-1" stroke="none" stroke-width="1" fill="none" fill-rule="evenodd">
        <g id="1" transform="translate(-938.000000, -96.000000)">
            <g id="header2">
                <g id="product-icons" transform="translate(0.000000, 80.000000)">
                    <g id="Group-29-Copy">
                        <g id="Electroincs-1" transform="translate(937.000000, 17.000000)">
                            <path d="M40.4468586,10.9698003 C37.4207718,4.48998355 30.845843,0 23.2222222,0 C13.9961127,0 6.30590169,6.57596358 4.58296011,15.2965199 M6.15701313,27.3630733 C9.25036184,33.6632784 15.7298442,38 23.2222222,38 C32.2012023,38 39.7254626,31.7716043 41.7102737,23.3995422" id="Shape" stroke="#404674"></path>
                            <polygon id="Path-36" fill="#FFDD87" points="21.165774 6.81718885 17.0604357 19.7153578 20.7336526 19.7153578 17.9475426 31.6344525 29.5271477 18.0978888 23.6749201 18.0978888 30.7041498 6.81718885"></polygon>
                            <polygon id="Path-35" fill="#FFDD87" points="37.5308642 14.0392689 45.5061728 12.2091849 42.9038241 19.7153578"></polygon>
                            <polygon id="Path-35" fill="#FFDD87" transform="translate(5.395062, 23.468444) rotate(-58.000000) translate(-5.395062, -23.468444) " points="1.40740741 21.5454418 9.38271605 19.7153578 6.7803673 27.2215306"></polygon>
                            <polygon id="Path-35" stroke="#404674" points="37.5308642 14.0392689 45.5061728 12.2091849 42.9038241 19.7153578"></polygon>
                            <polygon id="Path-35" stroke="#404674" transform="translate(5.395062, 23.468444) rotate(-58.000000) translate(-5.395062, -23.468444) " points="1.40740741 21.5454418 9.38271605 19.7153578 6.7803673 27.2215306"></polygon>
                            <polygon id="Path-36" stroke="#404674" points="21.165774 6.81718885 17.0604357 19.7153578 20.7336526 19.7153578 17.9475426 31.6344525 29.5271477 18.0978888 23.6749201 18.0978888 30.7041498 6.81718885"></polygon>
                        </g>
                    </g>
                </g>
            </g>
        </g>
    </g>
</svg>