<?xml version="1.0" encoding="UTF-8"?>
<svg width="41px" height="38px" viewBox="0 0 41 38" version="1.1" xmlns="http://www.w3.org/2000/svg" xmlns:xlink="http://www.w3.org/1999/xlink">
    <!-- Generator: Sketch 52.6 (67491) - http://www.bohemiancoding.com/sketch -->
    <title>Games-1</title>
    <desc>Created with Sketch.</desc>
    <g id="Page-1" stroke="none" stroke-width="1" fill="none" fill-rule="evenodd">
        <g id="1" transform="translate(-1110.000000, -97.000000)">
            <g id="header2">
                <g id="product-icons" transform="translate(0.000000, 80.000000)">
                    <g id="Group-29-Copy">
                        <g id="Games-1" transform="translate(1110.000000, 18.000000)">
                            <path d="M2.05188073,17.7574869 L0.628666108,30.3223798 C0.318570567,33.0600676 2.2865229,35.5307841 5.02421067,35.8408796 C5.21062498,35.8619946 5.39808197,35.8725773 5.58568831,35.8725773 L5.58568831,35.8725773 C8.8509127,35.8725773 11.6796202,33.6084569 12.3947916,30.4225159 L12.5650189,29.6641887 C13.2823885,26.4684553 16.1197904,24.1973758 19.3950509,24.1973758 L20.3926371,24.1973758 C23.5225705,24.1973758 26.2721238,26.2751691 27.1266811,29.2861847 L27.4403366,30.3913434 C28.3607932,33.6345544 31.3223792,35.8725773 34.6936783,35.8725773 L34.6936783,35.8725773 C37.3908728,35.8725773 39.577381,33.6860692 39.577381,30.9888747 C39.577381,30.7387814 39.5581702,30.4890576 39.5199181,30.2419069 L37.5439054,17.4746751 C37.0158267,14.0627012 34.0788672,11.545333 30.6262691,11.545333 L9.00740361,11.545333 C5.44625701,11.545333 2.4526858,14.2189673 2.05188073,17.7574869 Z" id="Path-37" fill="#D5DEE5"></path>
                            <path d="M17.4518323,10.2720419 L17.4518323,8.08853978 C17.4518323,7.53625503 17.8995476,7.08853978 18.4518323,7.08853978 L22.072407,7.08853978 C22.6246918,7.08853978 23.072407,7.53625503 23.072407,8.08853978 L23.072407,10.3149022 C23.072407,10.8671869 22.6246918,11.3149022 22.072407,11.3149022 C22.0684612,11.3149022 22.0645154,11.3148788 22.0605699,11.3148321 L18.4399952,11.2719718 C17.8923659,11.265489 17.4518323,10.8197095 17.4518323,10.2720419 Z" id="Path-41" fill="#D5DEE5"></path>
                            <path d="M2.05188073,17.7574869 L0.628666108,30.3223798 C0.318570567,33.0600676 2.2865229,35.5307841 5.02421067,35.8408796 C5.21062498,35.8619946 5.39808197,35.8725773 5.58568831,35.8725773 L5.58568831,35.8725773 C8.8509127,35.8725773 11.6796202,33.6084569 12.3947916,30.4225159 L12.5650189,29.6641887 C13.2823885,26.4684553 16.1197904,24.1973758 19.3950509,24.1973758 L20.3926371,24.1973758 C23.5225705,24.1973758 26.2721238,26.2751691 27.1266811,29.2861847 L27.4403366,30.3913434 C28.3607932,33.6345544 31.3223792,35.8725773 34.6936783,35.8725773 L34.6936783,35.8725773 C37.3908728,35.8725773 39.577381,33.6860692 39.577381,30.9888747 C39.577381,30.7387814 39.5581702,30.4890576 39.5199181,30.2419069 L37.5439054,17.4746751 C37.0158267,14.0627012 34.0788672,11.545333 30.6262691,11.545333 L9.00740361,11.545333 C5.44625701,11.545333 2.4526858,14.2189673 2.05188073,17.7574869 Z" id="Path-37" stroke="#404674"></path>
                            <circle id="Oval" fill="#FFFFFF" cx="9.08806262" cy="19.6908023" r="4.54403131"></circle>
                            <circle id="Oval" fill="#FFFFFF" cx="30.2935421" cy="19.6908023" r="4.54403131"></circle>
                            <circle id="Oval" stroke="#404674" cx="9.08806262" cy="19.6908023" r="4.54403131"></circle>
                            <circle id="Oval" stroke="#404674" cx="30.2935421" cy="19.6908023" r="4.54403131"></circle>
                            <path d="M9.2915283,17.1788828 L9.2915283,21.9002411" id="Path-38" stroke="#404674"></path>
                            <path d="M6.96805344,19.470969 L11.4778288,19.470969" id="Path-39" stroke="#404674"></path>
                            <path d="M18.3891071,20.6631292 L21.1004488,20.6631292" id="Path-40" stroke="#404674"></path>
                            <path d="M15.3597529,15.6142055 L18.0710946,15.6142055" id="Path-40" stroke="#404674"></path>
                            <path d="M21.4184613,15.6142055 L24.129803,15.6142055" id="Path-40" stroke="#404674"></path>
                            <circle id="Oval" stroke="#404674" cx="30.2935421" cy="17.6712329" r="1"></circle>
                            <circle id="Oval" stroke="#404674" cx="30.2935421" cy="21.7103718" r="1"></circle>
                            <circle id="Oval" stroke="#404674" cx="32.3131115" cy="19.6908023" r="1"></circle>
                            <circle id="Oval" stroke="#404674" cx="28.2739726" cy="19.6908023" r="1"></circle>
                            <path d="M17.4518323,10.2720419 L17.4518323,8.08853978 C17.4518323,7.53625503 17.8995476,7.08853978 18.4518323,7.08853978 L22.072407,7.08853978 C22.6246918,7.08853978 23.072407,7.53625503 23.072407,8.08853978 L23.072407,10.3149022 C23.072407,10.8671869 22.6246918,11.3149022 22.072407,11.3149022 C22.0684612,11.3149022 22.0645154,11.3148788 22.0605699,11.3148321 L18.4399952,11.2719718 C17.8923659,11.265489 17.4518323,10.8197095 17.4518323,10.2720419 Z" id="Path-41" stroke="#404674"></path>
                            <path d="M11.5164567,0.355039599 L17.4572135,0.355039599 C19.1140677,0.355039599 20.4572135,1.69818535 20.4572135,3.3550396 L20.4572135,7.08853978" id="Path-42" stroke="#404674"></path>
                        </g>
                    </g>
                </g>
            </g>
        </g>
    </g>
</svg>