<?xml version="1.0" encoding="UTF-8"?>
<svg width="32px" height="40px" viewBox="0 0 32 40" version="1.1" xmlns="http://www.w3.org/2000/svg" xmlns:xlink="http://www.w3.org/1999/xlink">
    <!-- Generator: Sketch 52.6 (67491) - http://www.bohemiancoding.com/sketch -->
    <title>Grocery-1</title>
    <desc>Created with Sketch.</desc>
    <g id="Page-1" stroke="none" stroke-width="1" fill="none" fill-rule="evenodd">
        <g id="1" transform="translate(-1284.000000, -96.000000)">
            <g id="header2">
                <g id="product-icons" transform="translate(0.000000, 80.000000)">
                    <g id="Group-29-Copy">
                        <g id="Grocery-1" transform="translate(1284.000000, 16.000000)">
                            <path d="M4.14738806,16.2885857 L2.37721695,10.2462643 C1.85908446,8.47766517 2.87278794,6.62390294 4.64138705,6.10577045 C4.6843722,6.09317743 4.72760655,6.08145118 4.77106381,6.07059882 L4.77106381,6.07059882 C6.64647699,5.60226154 8.55345,6.713911 9.0700046,8.57662025 L10.6335739,14.2148917 L11.6064527,17.146771" id="Path-44" fill="#93F4FF"></path>
                            <path d="M14.5972852,16.5122627 C13.0297998,15.657318 12.2460571,14.3853898 12.2460571,12.696478 C12.2460571,10.1631104 14.8205762,9.95155261 15.1958484,9.95155261 C15.5711207,9.95155261 16.4710612,10.0860235 17.4371241,9.27134083 C18.4031869,8.45665819 20.3921307,9.64207688 20.6960654,9.64207688 C20.8986885,9.64207688 21.4075186,10.0933639 22.2225557,10.9959381 L22.9112545,19.6857862 L17.5786558,20.1761252 L14.5972852,16.5122627 Z" id="Path-48" fill="#FF8282"></path>
                            <path d="M20.9964004,15.1343284 L23.2453629,7.3911176 C24.2727298,3.85387848 27.8092736,1.66704128 31.4328358,2.32835821 L27.4918983,15.1343284 L26.2597323,19.7090092 L20.6960654,17.3325019 L20.9964004,15.1343284 Z" id="Path-50" fill="#F4A675"></path>
                            <polyline id="Path-46" fill="#DBFBFF" transform="translate(4.013342, 4.130607) rotate(4.000000) translate(-4.013342, -4.130607) " points="3.39752037 7.13136708 1.5709417 2.21231578 4.50291432 1.12984627 6.45574204 6.10733027"></polyline>
                            <polygon id="Path-43" fill="#FFEBD0" points="1.26183472 15.4629724 6.23308059 38.7300946 25.909704 38.7300946 30.2686567 15.4629724 24.3850561 17.2092411 20.1731537 15.1343284 16.0186113 17.2092411 11.2645397 15.1343284 6.96558065 17.2092411"></polygon>
                            <g id="Group-45" stroke="#404674">
                                <path d="M4.14738806,16.2885857 L2.37721695,10.2462643 C1.85908446,8.47766517 2.87278794,6.62390294 4.64138705,6.10577045 C4.6843722,6.09317743 4.72760655,6.08145118 4.77106381,6.07059882 L4.77106381,6.07059882 C6.64647699,5.60226154 8.55345,6.713911 9.0700046,8.57662025 L10.6335739,14.2148917" id="Path-44"></path>
                                <path d="M3.14364116,11.8420254 L9.45163842,9.7437747" id="Path-45"></path>
                                <polyline id="Path-46" transform="translate(4.013342, 4.130607) rotate(4.000000) translate(-4.013342, -4.130607) " points="3.39752037 7.13136708 1.5709417 2.21231578 4.50291432 1.12984627 6.45574204 6.10733027"></polyline>
                                <path d="M0.439409813,2.23683699 L5.98692036,0.889715612" id="Path-47" transform="translate(3.213165, 1.563276) rotate(-4.000000) translate(-3.213165, -1.563276) "></path>
                            </g>
                            <polygon id="Path-43" stroke="#404674" points="1.26183472 15.4629724 6.23308059 38.7300946 25.909704 38.7300946 30.2686567 15.4629724 24.3850561 17.2092411 20.1731537 15.1343284 16.0186113 17.2092411 11.2645397 15.1343284 6.96558065 17.2092411"></polygon>
                            <path d="M14.5972852,16.5122627 C13.0297998,15.657318 12.2460571,14.3853898 12.2460571,12.696478 C12.2460571,10.1631104 14.8205762,9.95155261 15.1958484,9.95155261 C15.5711207,9.95155261 16.4710612,10.0860235 17.4371241,9.27134083 C18.4031869,8.45665819 20.1777753,8.84972697 20.6960654,9.64207688" id="Path-48" stroke="#404674"></path>
                            <path d="M20.9964004,15.1343284 L23.2453629,7.3911176 C24.2727298,3.85387848 27.8092736,1.66704128 31.4328358,2.32835821 L27.4918983,15.1343284" id="Path-50" stroke="#404674"></path>
                            <path d="M16.6841963,3.93596259 L16.6611247,3.95186831 C15.5455664,4.72093974 15.2646833,6.24873398 16.0337547,7.36429225 C16.2083392,7.61753161 16.428987,7.83568308 16.6841963,8.00737501 L16.6841963,8.00737501 C17.8084264,7.18589806 18.0538562,5.60859089 17.2323793,4.48436084 C17.0848374,4.28244273 16.9080739,4.10360038 16.7078947,3.95370773 L16.6841963,3.93596259 Z" id="Path-49" stroke="#404674" transform="translate(16.659058, 5.971669) rotate(27.000000) translate(-16.659058, -5.971669) "></path>
                            <path d="M16.6841963,3.93596259 L16.6611247,3.95186831 C15.5455664,4.72093974 15.2646833,6.24873398 16.0337547,7.36429225 C16.2083392,7.61753161 16.428987,7.83568308 16.6841963,8.00737501 L16.6841963,8.00737501 C17.8084264,7.18589806 18.0538562,5.60859089 17.2323793,4.48436084 C17.0848374,4.28244273 16.9080739,4.10360038 16.7078947,3.95370773 L16.6841963,3.93596259 Z" id="Path-49" stroke="#404674" transform="translate(16.659058, 5.971669) rotate(27.000000) translate(-16.659058, -5.971669) "></path>
                            <path d="M23.3867348,6.83220579 L26.2597323,7.56716418" id="Path-51" stroke="#404674"></path>
                            <path d="M22.2225557,10.9068327 L25.0955532,11.641791" id="Path-51" stroke="#404674"></path>
                        </g>
                    </g>
                </g>
            </g>
        </g>
    </g>
</svg>