<?xml version="1.0" encoding="UTF-8"?>
<svg width="13px" height="13px" viewBox="0 0 13 13" version="1.1" xmlns="http://www.w3.org/2000/svg" xmlns:xlink="http://www.w3.org/1999/xlink">
    <!-- Generator: Sketch 52.6 (67491) - http://www.bohemiancoding.com/sketch -->
    <title>ico-search</title>
    <desc>Created with Sketch.</desc>
    <g id="Page-1" stroke="none" stroke-width="1" fill="none" fill-rule="evenodd" opacity="0.200000003">
        <g id="1" transform="translate(-1094.000000, -34.000000)" fill="#7F7F7F" fill-rule="nonzero">
            <g id="header2">
                <g id="header">
                    <g id="Group-38" transform="translate(1084.000000, 20.000000)">
                        <g id="ico-search" transform="translate(10.000000, 14.000000)">
                            <path d="M12.6470837,11.1149482 L9.83064143,8.29855777 C9.81567331,8.28358964 9.79811554,8.27312749 9.7824741,8.25919522 C10.3366574,7.41854582 10.6601036,6.41226295 10.6601036,5.33010359 C10.6601036,2.38635458 8.273749,0 5.33005179,0 C2.38635458,0 0,2.38635458 0,5.33005179 C0,8.27369721 2.38630279,10.6601036 5.33,10.6601036 C6.41221116,10.6601036 7.41844223,10.3366574 8.25909163,9.7824741 C8.2730239,9.79806375 8.28343426,9.81562151 8.29840239,9.83058964 L11.1148964,12.6470837 C11.537992,13.0701275 12.2239363,13.0701275 12.6470837,12.6470837 C13.0701275,12.223988 13.0701275,11.5380438 12.6470837,11.1149482 Z M5.33005179,8.81234263 C3.40677689,8.81234263 1.84770916,7.2532749 1.84770916,5.33005179 C1.84770916,3.40677689 3.40682869,1.84770916 5.33005179,1.84770916 C7.25322311,1.84770916 8.81234263,3.40682869 8.81234263,5.33005179 C8.81234263,7.2532749 7.25322311,8.81234263 5.33005179,8.81234263 Z" id="Shape"></path>
                        </g>
                    </g>
                </g>
            </g>
        </g>
    </g>
</svg>