<?xml version="1.0" encoding="UTF-8"?>
<svg width="36px" height="38px" viewBox="0 0 36 38" version="1.1" xmlns="http://www.w3.org/2000/svg" xmlns:xlink="http://www.w3.org/1999/xlink">
    <!-- Generator: Sketch 52.6 (67491) - http://www.bohemiancoding.com/sketch -->
    <title>Travel-1</title>
    <desc>Created with Sketch.</desc>
    <g id="Page-1" stroke="none" stroke-width="1" fill="none" fill-rule="evenodd">
        <g id="1" transform="translate(-1450.000000, -96.000000)">
            <g id="header2">
                <g id="product-icons" transform="translate(0.000000, 80.000000)">
                    <g id="Group-29-Copy">
                        <g id="Travel-1" transform="translate(1470.078919, 34.330758) rotate(50.000000) translate(-1470.078919, -34.330758) translate(1450.078919, 15.830758)">
                            <path d="M17.7461467,2.34622639 L17.7461467,2.34622639 C16.4208873,4.58024165 15.8481442,7.18082159 16.1122869,9.76488146 L18.7774415,35.8376112 C18.843602,36.4848474 19.3887221,36.9770859 20.0393309,36.9770859 L20.0393309,36.9770859 C20.6885229,36.9770859 21.2310701,36.4830327 21.2916781,35.8366761 L23.7302134,9.83083675 C23.9761703,7.20782136 23.3497498,4.57694246 21.9481042,2.34622639 L21.9146048,2.29291217 C21.1969803,1.15081433 19.6893775,0.806710659 18.5472796,1.52433512 C18.2187387,1.73077014 17.9441116,2.01251326 17.7461467,2.34622639 Z" id="Path-52" fill="#D6F1FF"></path>
                            <path d="M16.0494236,8.51145534 L5.10271818,12.1794092 C2.18658615,13.1565286 0.221150762,15.8879295 0.221150762,18.9634113 L16.5750955,15.2461075" id="Path-53" fill="#9BDDFF"></path>
                            <path d="M39.1200118,8.51145534 L28.1733064,12.1794092 C25.2571744,13.1565286 23.291739,15.8879295 23.291739,18.9634113 L39.6456837,15.2461075" id="Path-53" fill="#9BDDFF" transform="translate(31.468711, 13.737433) scale(-1, 1) translate(-31.468711, -13.737433) "></path>
                            <path d="M18.0797456,29.8457643 L13.3254592,31.9661739 C11.5471909,32.7592808 10.4018335,34.5242188 10.4018335,36.4713338 L18.7346066,34.8337617" id="Path-54" fill="#D6F1FF"></path>
                            <path d="M28.9620985,29.8457643 L24.2078121,31.9661739 C22.4295438,32.7592808 21.2841864,34.5242188 21.2841864,36.4713338 L29.6169595,34.8337617" id="Path-54" stroke="#404674" fill="#D6F1FF" transform="translate(25.450573, 33.158549) scale(-1, 1) translate(-25.450573, -33.158549) "></path>
                            <path d="M17.7461467,2.34622639 L17.7461467,2.34622639 C16.4208873,4.58024165 15.8481442,7.18082159 16.1122869,9.76488146 L18.7774415,35.8376112 C18.843602,36.4848474 19.3887221,36.9770859 20.0393309,36.9770859 L20.0393309,36.9770859 C20.6885229,36.9770859 21.2310701,36.4830327 21.2916781,35.8366761 L23.7302134,9.83083675 C23.9761703,7.20782136 23.3497498,4.57694246 21.9481042,2.34622639 L21.9146048,2.29291217 C21.1969803,1.15081433 19.6893775,0.806710659 18.5472796,1.52433512 C18.2187387,1.73077014 17.9441116,2.01251326 17.7461467,2.34622639 Z" id="Path-52" stroke="#404674"></path>
                            <path d="M16.0494236,8.51145534 L5.10271818,12.1794092 C2.18658615,13.1565286 0.221150762,15.8879295 0.221150762,18.9634113 L16.5750955,15.2461075" id="Path-53" stroke="#404674"></path>
                            <path d="M39.1200118,8.51145534 L28.1733064,12.1794092 C25.2571744,13.1565286 23.291739,15.8879295 23.291739,18.9634113 L39.6456837,15.2461075" id="Path-53" stroke="#404674" transform="translate(31.468711, 13.737433) scale(-1, 1) translate(-31.468711, -13.737433) "></path>
                            <path d="M18.0797456,29.8457643 L13.3254592,31.9661739 C11.5471909,32.7592808 10.4018335,34.5242188 10.4018335,36.4713338 L18.7346066,34.8337617" id="Path-54" stroke="#404674"></path>
                            <path d="M28.9620985,29.8457643 L24.2078121,31.9661739 C22.4295438,32.7592808 21.2841864,34.5242188 21.2841864,36.4713338 L29.6169595,34.8337617" id="Path-54" stroke="#404674" transform="translate(25.450573, 33.158549) scale(-1, 1) translate(-25.450573, -33.158549) "></path>
                            <path d="M5.26875477,9.81789866 L5.26875477,11.9367534" id="Path-55" stroke="#404674"></path>
                            <path d="M10.6647059,7.84541724 L10.6647059,10.3995661" id="Path-55" stroke="#404674"></path>
                            <path d="M34.8687548,10.2531928 L34.8687548,12.3720475" id="Path-55" stroke="#404674"></path>
                            <path d="M29.8176471,7.84541724 L29.8176471,10.3995661" id="Path-55" stroke="#404674"></path>
                        </g>
                    </g>
                </g>
            </g>
        </g>
    </g>
</svg>